<svg id="Layer_1" data-name="Layer 1" xmlns="http://www.w3.org/2000/svg" viewBox="0 0 339.8 62.5"><defs><style>.cls-1{fill:#fff;}</style></defs><path class="cls-1" d="M83.7,48.5a19.48,19.48,0,0,1-6.1,14.7,20,20,0,0,1-14.7,6.1H42.1V90H31.7V58.9H62.9a10.21,10.21,0,0,0,7.3-3,10,10,0,0,0,3.1-7.3,9.76,9.76,0,0,0-3.1-7.3,9.88,9.88,0,0,0-7.3-3H42.1L31.7,27.7H62.9a20,20,0,0,1,14.7,6.1A20.41,20.41,0,0,1,83.7,48.5Z" transform="translate(-31.7 -27.7)"/><path class="cls-1" d="M112.1,67.7l12.8,22.4H113L94.8,58.8l9.3.1a10.21,10.21,0,0,0,7.3-3,10.26,10.26,0,0,0,0-14.7,9.88,9.88,0,0,0-7.3-3H83.3L82.1,37l-5.4-9.3h27.4a20.83,20.83,0,0,1,20.8,20.8,19.7,19.7,0,0,1-3.7,11.8A21,21,0,0,1,112.1,67.7Z" transform="translate(-31.7 -27.7)"/><path class="cls-1" d="M189.3,36.9a29.7,29.7,0,0,1,9.3,22,29.39,29.39,0,0,1-9.3,22,30.9,30.9,0,0,1-44,0,29.83,29.83,0,0,1-9.2-22,30,30,0,0,1,9.2-22,30.9,30.9,0,0,1,44,0Zm-36.8,7.3a19.92,19.92,0,0,0-6,14.7,20.15,20.15,0,0,0,6,14.7,19.92,19.92,0,0,0,14.7,6,20.31,20.31,0,0,0,14.7-6A20,20,0,0,0,188,58.9a20.79,20.79,0,0,0-35.5-14.7Z" transform="translate(-31.7 -27.7)"/><path class="cls-1" d="M206.8,79.6V90.1a20,20,0,0,1-14.7-6l7.5-7.5A9.82,9.82,0,0,0,206.8,79.6Zm11.9,1.7-4.6-4.6a9.61,9.61,0,0,0,3.1-7.3V27.7h10.5V69.4a20.11,20.11,0,0,1-6.2,14.7Zm2.9,2.8-2.9-2.8Z" transform="translate(-31.7 -27.7)"/><path class="cls-1" d="M272.5,27.7V38.2H241.3L230.9,27.7ZM241.3,53.8h31.2V64.2H230.9V53.8Zm0,25.8h31.2V90.1H230.9v-.9Z" transform="translate(-31.7 -27.7)"/><path class="cls-1" d="M311.7,27.7V38.2H291v52H280.5V27.7Z" transform="translate(-31.7 -27.7)"/><path class="cls-1" d="M362.2,36.9a29.7,29.7,0,0,1,9.3,22,29.39,29.39,0,0,1-9.3,22,30.9,30.9,0,0,1-44,0,29.83,29.83,0,0,1-9.2-22,30,30,0,0,1,9.2-22,30.9,30.9,0,0,1,44,0Zm-36.7,7.3a19.92,19.92,0,0,0-6,14.7,20.15,20.15,0,0,0,6,14.7,19.92,19.92,0,0,0,14.7,6,20.31,20.31,0,0,0,14.7-6A20,20,0,0,0,361,58.9a20.79,20.79,0,0,0-35.5-14.7Z" transform="translate(-31.7 -27.7)"/></svg>