<svg width="135" height="135" viewBox="0 0 135 135" fill="none" xmlns="http://www.w3.org/2000/svg">
<g clip-path="url(#clip0_71_217)">
<path d="M8.59858 102.231C18.8048 95.6951 30.7424 84.4617 26.2 71.3039C23.73 64.117 20.2947 57.9484 19.8404 50.1821C19.4316 43.6043 20.3983 37.0136 22.6793 30.8278C31.8634 6.40874 59.0039 -5.14945 83.5183 2.1789C106.23 8.96975 121.844 35.2564 112.448 58.1611C107.011 71.3891 104.583 81.6316 116.748 91.8747C120.027 94.7042 128.005 98.8354 127.976 103.787C127.976 110.267 115.201 102.372 113.782 101.283C115.399 104.112 131.468 120.793 121.248 121.981C111.837 123.07 103.519 109.97 97.8689 104.353C88.3725 94.9025 90.0194 115.813 89.9769 120.128C89.9769 126.947 85.0797 140.755 76.4069 131.757C69.3095 124.329 71.9496 112.488 66.9674 104.225C61.3885 95.1854 52.3748 113.266 50.0327 116.577C47.5061 120.269 34.8303 138.166 29.7767 128.63C25.6887 120.892 32.2183 108.823 35.4546 101.75C34.2765 104.296 25.9731 108.045 23.5455 109.277C18.2825 112.168 12.3149 113.54 6.31292 113.238C-6.46234 112.318 3.33203 105.569 8.5416 102.231H8.59858V102.231Z" fill="#2F93E0"/>
</g>
<defs>
<clipPath id="clip0_71_217">
<rect width="128" height="135" fill="white"/>
</clipPath>
</defs>
</svg>
